name C:\Users\u0101727\Documents\MyRepositories\upper-imu-dc\Results\main_tracking\Case_55\kinematics.mot
datacolumns 10
datarows 42
range 0.70000000 1.11000000
endheader 
time	clav_prot	clav_elev	scapula_abduction	scapula_elevation	scapula_upward_rot	scapula_winging	plane_elv	shoulder_elv	axial_rot	
          0.70000000	        -18.51631352	         -4.30778514	         -5.22477127	         -4.56897843	         13.17709581	          5.24882323	        -23.05431532	         16.15663334	         42.14741803	
          0.71000000	        -18.64498044	         -5.12257182	         -5.34662103	         -4.48737446	         13.18578078	          5.20939456	        -22.89239634	         16.14377559	         42.08498830	
          0.72000000	        -18.63991103	         -5.01340917	         -5.35735394	         -4.40570124	         13.19460757	          5.17025110	        -22.73035978	         16.13089779	         42.02233610	
          0.73000000	        -18.63470120	         -4.90404413	         -5.36800550	         -4.32390509	         13.20350521	          5.13138774	        -22.56796738	         16.11775629	         41.95900490	
          0.74000000	        -18.62936833	         -4.79423962	         -5.37857753	         -4.24184337	         13.21261984	          5.09269667	        -22.40490712	         16.10432762	         41.89443893	
          0.75000000	        -18.62392145	         -4.68369267	         -5.38905699	         -4.15933035	         13.22212655	          5.05404340	        -22.24076039	         16.09055156	         41.82794248	
          0.76000000	        -18.61837211	         -4.57203119	         -5.39942676	         -4.07613976	         13.23224602	          5.01526457	        -22.07502595	         16.07635270	         41.75872926	
          0.77000000	        -18.61273286	         -4.45882002	         -5.40966439	         -3.99200834	         13.24324036	          4.97617168	        -21.90712759	         16.06163490	         41.68595617	
          0.78000000	        -18.60701747	         -4.34356598	         -5.41974236	         -3.90663963	         13.25541223	          4.93655412	        -21.73642362	         16.04628066	         41.60875801	
          0.79000000	        -18.60124107	         -4.22572379	         -5.42962758	         -3.81970846	         13.26910478	          4.89618210	        -21.56221673	         16.03014755	         41.52627983	
          0.80000000	        -18.59542042	         -4.10470325	         -5.43928083	         -3.73086657	         13.28470128	          4.85481011	        -21.38376358	         16.01306345	         41.43770473	
          0.81000000	        -18.58957394	         -3.97987654	         -5.44865644	         -3.63974783	         13.30262358	          4.81218054	        -21.20028588	         15.99482248	         41.34227633	
          0.82000000	        -18.58372006	         -3.85058145	         -5.45770347	         -3.54596877	         13.32332484	          4.76802735	        -21.01098492	         15.97518556	         41.23931451	
          0.83000000	        -18.57787820	         -3.71612746	         -5.46636764	         -3.44913285	         13.34728751	          4.72207973	        -20.81505262	         15.95388089	         41.12822561	
          0.84000000	        -18.57207386	         -3.57580760	         -5.47459294	         -3.34884212	         13.37503191	          4.67406525	        -20.61167693	         15.93060183	         41.00850783	
          0.85000000	        -18.56634172	         -3.42890712	         -5.48232460	         -3.24470443	         13.40711756	          4.62371358	        -20.40005067	         15.90500991	         40.87975240	
          0.86000000	        -18.56072529	         -3.27470879	         -5.48951305	         -3.13633514	         13.44413404	          4.57076116	        -20.17938758	         15.87673925	         40.74164475	
          0.87000000	        -18.55527735	         -3.11249933	         -5.49611773	         -3.02336012	         13.48669379	          4.51495596	        -19.94893414	         15.84540331	         40.59396194	
          0.88000000	        -18.55006498	         -2.94158479	         -5.50210862	         -2.90542956	         13.53543862	          4.45606152	        -19.70797720	         15.81059293	         40.43657365	
          0.89000000	        -18.54517256	         -2.76130552	         -5.50746708	         -2.78222992	         13.59104118	          4.39386143	        -19.45585120	         15.77187493	         40.26944207	
          0.90000000	        -18.54070144	         -2.57105000	         -5.51218548	         -2.65349262	         13.65419840	          4.32816454	        -19.19195012	         15.72878889	         40.09262457	
          0.91000000	        -18.53676399	         -2.37025970	         -5.51626865	         -2.51899140	         13.72560880	          4.25881086	        -18.91574774	         15.68085060	         39.90627668	
          0.92000000	        -18.53348272	         -2.15843642	         -5.51973541	         -2.37854524	         13.80596319	          4.18567505	        -18.62681120	         15.62755741	         39.71065506	
          0.93000000	        -18.53099905	         -1.93516384	         -5.52261489	         -2.23204076	         13.89596637	          4.10866596	        -18.32479678	         15.56838594	         39.50612014	
          0.94000000	        -18.52947210	         -1.70011586	         -5.52494550	         -2.07943615	         13.99632927	          4.02772821	        -18.00945782	         15.50279786	         39.29313538	
          0.95000000	        -18.52907307	         -1.45305383	         -5.52677809	         -1.92075235	         14.10774576	          3.94284427	        -17.68065895	         15.43025427	         39.07226398	
          0.96000000	        -18.52998454	         -1.19382773	         -5.52817731	         -1.75607138	         14.23088473	          3.85403375	        -17.33837781	         15.35023077	         38.84416117	
          0.97000000	        -18.53239986	         -0.92238279	         -5.52922026	         -1.58553943	         14.36638439	          3.76135296	        -16.98270190	         15.26222321	         38.60956357	
          0.98000000	        -18.53652932	         -0.63877556	         -5.52999101	         -1.40938309	         14.51486773	          3.66489053	        -16.61380148	         15.16574852	         38.36926636	
          0.99000000	        -18.54259211	         -0.34316354	         -5.53058351	         -1.22789297	         14.67691420	          3.56476709	        -16.23192303	         15.06036048	         38.12409809	
          1.00000000	        -18.55080907	         -0.03579436	         -5.53110370	         -1.04140823	         14.85303556	          3.46113414	        -15.83737534	         14.94566217	         37.87489209	
          1.01000000	        -18.56139756	          0.28300109	         -5.53166943	         -0.85030648	         15.04365993	          3.35417227	        -15.43050680	         14.82131275	         37.62245671	
          1.02000000	        -18.57457405	          0.61279312	         -5.53239663	         -0.65502004	         15.24915013	          3.24408444	        -15.01166043	         14.68701358	         37.36754895	
          1.03000000	        -18.59054622	          0.95306845	         -5.53339663	         -0.45601942	         15.46978762	          3.13109197	        -14.58115155	         14.54252033	         37.11085349	
          1.04000000	        -18.60950261	          1.30325850	         -5.53477863	         -0.25378480	         15.70574916	          3.01543159	        -14.13925686	         14.38766403	         36.85296860	
          1.05000000	        -18.63160429	          1.66274706	         -5.53664161	         -0.04879721	         15.95709748	          2.89735330	        -13.68620338	         14.22234769	         36.59440318	
          1.06000000	        -18.65698010	          2.03087212	         -5.53905906	          0.15846056	         16.22379100	          2.77711460	        -13.22214070	         14.04654812	         36.33556444	
          1.07000000	        -18.68572451	          2.40692451	         -5.54206412	          0.36749909	         16.50569913	          2.65497395	        -12.74712676	         13.86031213	         36.07675400	
          1.08000000	        -18.71788514	          2.79017551	         -5.54565289	          0.57785085	         16.80257498	          2.53119286	        -12.26113769	         13.66377284	         35.81815767	
          1.09000000	        -18.75345454	          3.17988472	         -5.54977986	          0.78907913	         17.11404420	          2.40603782	        -11.76407928	         13.45714309	         35.55984203	
          1.10000000	        -18.79237178	          3.57529215	         -5.55434263	          1.00076497	         17.43963062	          2.27977445	        -11.25576873	         13.24071295	         35.30173490	
          1.11000000	        -18.83452169	          3.97561326	         -5.55917162	          1.21249989	         17.77876786	          2.15266490	        -10.73593383	         13.01484073	         35.04361371	
